<svg width="24" height="24" viewBox="0 0 24 24" fill="none" xmlns="http://www.w3.org/2000/svg">
<path d="M12 11.388C11.094 9.62698 8.628 6.34398 6.335 4.72598C4.138 3.17598 3.301 3.44298 2.752 3.69298C2.116 3.97798 2 4.95498 2 5.52798C2 6.10298 2.315 10.237 2.52 10.928C3.2 13.208 5.614 13.978 7.84 13.731C4.58 14.214 1.683 15.401 5.48 19.629C9.658 23.954 11.206 18.702 12 16.039C12.794 18.702 13.708 23.765 18.444 19.629C22 16.039 19.421 14.214 16.161 13.731C18.386 13.978 20.801 13.208 21.48 10.928C21.685 10.238 22 6.10298 22 5.52898C22 4.95398 21.884 3.97898 21.248 3.69098C20.699 3.44298 19.862 3.17398 17.665 4.72398C15.372 6.34498 12.905 9.62798 12 11.388Z" fill="black"/>
</svg>
