<svg width="600" height="600" viewBox="0 0 600 600" fill="none" xmlns="http://www.w3.org/2000/svg">
<circle cx="300" cy="300" r="300" fill="white"/>
<path d="M226.58 454.619C205.835 454.619 189.627 449.433 177.958 439.06C166.613 428.687 160.94 412.156 160.94 389.465V223.177H127.391V218.314L139.06 216.37C149.109 214.1 157.699 210.859 164.83 206.645C172.285 202.431 179.579 196.759 186.71 189.627L226.58 145.381H231.442L229.984 213.452H284.441V223.177H229.498V398.217C229.498 409.562 231.929 418.152 236.791 423.987C241.977 429.822 248.46 432.739 256.24 432.739C263.047 432.739 269.044 431.118 274.23 427.877C279.417 424.311 284.603 419.611 289.789 413.776L294.652 418.639C288.169 429.66 279.254 438.412 267.909 444.895C256.564 451.378 242.788 454.619 226.58 454.619Z" fill="#000A17"/>
<path d="M401.792 454.619C381.046 454.619 364.839 449.433 353.169 439.06C341.824 428.687 336.152 412.156 336.152 389.465V223.177H302.602V218.314L314.271 216.37C324.32 214.1 332.91 210.859 340.041 206.645C347.497 202.431 354.79 196.759 361.921 189.627L401.792 145.381H406.654L405.195 213.452H459.652V223.177H404.709V398.217C404.709 409.562 407.14 418.152 412.002 423.987C417.189 429.822 423.672 432.739 431.451 432.739C438.258 432.739 444.255 431.118 449.442 427.877C454.628 424.311 459.814 419.611 465.001 413.776L469.863 418.639C463.38 429.66 454.466 438.412 443.121 444.895C431.775 451.378 417.999 454.619 401.792 454.619Z" fill="#000A17"/>
</svg>
