<svg width="600" height="600" viewBox="0 0 600 600" fill="none" xmlns="http://www.w3.org/2000/svg">
<circle cx="300" cy="300" r="300" fill="#000C18"/>
<path d="M226.581 454.619C205.835 454.619 189.628 449.433 177.958 439.06C166.613 428.687 160.941 412.156 160.941 389.465V223.177H127.391V218.315L139.06 216.37C149.109 214.101 157.699 210.859 164.83 206.645C172.286 202.431 179.579 196.759 186.71 189.627L226.581 145.381H231.443L229.984 213.452H284.441V223.177H229.498V398.217C229.498 409.563 231.929 418.153 236.791 423.987C241.978 429.822 248.461 432.739 256.24 432.739C263.048 432.739 269.044 431.119 274.231 427.877C279.417 424.311 284.603 419.611 289.79 413.777L294.652 418.639C288.169 429.66 279.255 438.412 267.91 444.895C256.565 451.378 242.788 454.619 226.581 454.619Z" fill="white"/>
<path d="M401.792 454.619C381.047 454.619 364.839 449.433 353.17 439.06C341.825 428.687 336.152 412.156 336.152 389.465V223.177H302.603V218.315L314.272 216.37C324.321 214.101 332.911 210.859 340.042 206.645C347.497 202.431 354.791 196.759 361.922 189.627L401.792 145.381H406.654L405.196 213.452H459.653V223.177H404.71V398.217C404.71 409.563 407.141 418.153 412.003 423.987C417.189 429.822 423.672 432.739 431.452 432.739C438.259 432.739 444.256 431.119 449.442 427.877C454.628 424.311 459.815 419.611 465.001 413.777L469.863 418.639C463.381 429.66 454.466 438.412 443.121 444.895C431.776 451.378 418 454.619 401.792 454.619Z" fill="white"/>
</svg>
